<?xml version="1.0" encoding="iso-8859-1"?>
<!-- Uploaded to: SVG Repo, www.svgrepo.com, Generator: SVG Repo Mixer Tools -->
<svg fill="#000000" height="800px" width="800px" version="1.1" id="Capa_1" xmlns="http://www.w3.org/2000/svg" xmlns:xlink="http://www.w3.org/1999/xlink" 
	 viewBox="0 0 490 490" xml:space="preserve">
<g>
	<g>
		<g>
			<path d="M245,15.312c126.65,0,229.687,103.038,229.687,229.688S371.65,474.687,245,474.687S15.313,371.65,15.313,245
				S118.35,15.312,245,15.312 M245,0C109.688,0,0,109.69,0,245s109.688,245,245,245s245-109.69,245-245S380.311,0,245,0L245,0z"/>
		</g>
	</g>
	<g>
		<path d="M268.759,401.953c0,0-23.96-46.645,22.117-78.938c46.077-32.293,58.978-50.233,58.978-50.233s25.803-7.176,14.744,14.352
			c-11.058,21.528-29.489,35.881-29.489,35.881s35.018-7.176,44.234-35.881c9.215-28.704,0-44.851,22.117-50.233
			c0,0,11.058,53.821-22.117,86.114c-33.175,32.293-71.88,44.851-73.723,78.938H268.759z"/>
	</g>
	<g>
		<path d="M221.241,401.953c0,0,23.96-46.645-22.117-78.938c-46.077-32.293-58.978-50.233-58.978-50.233
			s-25.803-7.176-14.745,14.352c11.058,21.528,29.489,35.881,29.489,35.881s-35.018-7.176-44.234-35.881
			c-9.215-28.704,0-44.851-22.117-50.233c0,0-11.058,53.821,22.117,86.114c33.175,32.293,71.88,44.851,73.723,78.938H221.241z"/>
	</g>
	<g>
		<g>
			<g>
				<path d="M245,15.313c126.65,0,229.687,103.037,229.687,229.687S371.65,474.688,245,474.688S15.313,371.65,15.313,245
					S118.35,15.313,245,15.313 M245,0C109.69,0,0,109.69,0,245c0,135.31,109.69,245,245,245c135.31,0,245-109.69,245-245
					C490,109.69,380.31,0,245,0L245,0z"/>
			</g>
		</g>
	</g>
	<g>
		<g>
			<path d="M268.759,401.953c0,0-23.96-46.645,22.117-78.938c46.077-32.293,58.978-50.233,58.978-50.233s25.803-7.176,14.744,14.352
				c-11.058,21.528-29.489,35.881-29.489,35.881s35.018-7.176,44.234-35.881c9.215-28.704,0-44.851,22.117-50.233
				c0,0,11.058,53.821-22.117,86.114c-33.175,32.293-71.88,44.851-73.723,78.938H268.759z"/>
		</g>
	</g>
	<g>
		<g>
			<path d="M221.241,401.953c0,0,23.96-46.645-22.117-78.938c-46.077-32.293-58.978-50.233-58.978-50.233
				s-25.803-7.176-14.745,14.352c11.058,21.528,29.489,35.881,29.489,35.881s-35.018-7.176-44.234-35.881
				c-9.215-28.704,0-44.851-22.117-50.233c0,0-11.058,53.821,22.117,86.114c33.175,32.293,71.88,44.851,73.723,78.938H221.241z"/>
		</g>
	</g>
	<g>
		<path d="M245,15.313c126.65,0,229.687,103.037,229.687,229.687S371.65,474.688,245,474.688S15.313,371.65,15.313,245
			S118.35,15.313,245,15.313 M245,0C109.69,0,0,109.69,0,245c0,135.31,109.69,245,245,245c135.31,0,245-109.69,245-245
			C490,109.69,380.31,0,245,0L245,0z"/>
	</g>
	<g>
		<path d="M268.759,401.953c0,0-23.96-46.645,22.117-78.938c46.077-32.293,58.978-50.233,58.978-50.233s25.803-7.176,14.744,14.352
			c-11.058,21.528-29.489,35.881-29.489,35.881s35.018-7.176,44.234-35.881c9.215-28.704,0-44.851,22.117-50.233
			c0,0,11.058,53.821-22.117,86.114c-33.175,32.293-71.88,44.851-73.723,78.938H268.759z"/>
	</g>
	<g>
		<path d="M221.241,401.953c0,0,23.96-46.645-22.117-78.938c-46.077-32.293-58.978-50.233-58.978-50.233
			s-25.803-7.176-14.745,14.352c11.058,21.528,29.489,35.881,29.489,35.881s-35.018-7.176-44.234-35.881
			c-9.215-28.704,0-44.851-22.117-50.233c0,0-11.058,53.821,22.117,86.114c33.175,32.293,71.88,44.851,73.723,78.938H221.241z"/>
	</g>
	<g>
		<path d="M258.831,80.391l3.026,30.273c5.44,1.226,10.602,3.174,15.409,5.705l22.98-18.813l19.478,19.49l-18.076,22.106
			c3.136,5.081,5.592,10.626,7.194,16.528l28.037,2.805v27.563l-28.077,2.809c-1.614,5.885-4.036,11.434-7.168,16.507l18.09,22.123
			l-19.478,19.489l-22.976-18.809c-4.808,2.531-9.973,4.475-15.413,5.702l-3.026,30.273h-13.773h-0.116h-13.773l-3.025-30.273
			c-5.44-1.227-10.605-3.171-15.413-5.702l-22.976,18.809l-19.478-19.489l18.09-22.123c-3.131-5.072-5.554-10.622-7.168-16.507
			l-28.077-2.809v-27.563l28.036-2.805c1.603-5.903,4.059-11.448,7.194-16.528l-18.076-22.106l19.478-19.49l22.98,18.813
			c4.807-2.531,9.97-4.478,15.409-5.705l3.025-30.273h13.773h0.116H258.831 M245,213.725c22.883,0,41.435-18.562,41.435-41.459
			c0-22.897-18.551-41.459-41.435-41.459c-22.884,0-41.434,18.562-41.434,41.459C203.566,195.163,222.116,213.725,245,213.725
			 M272.689,65.078h-13.858h-13.773h-13.889H217.31l-1.378,13.79l-1.878,18.792l-14.6-11.953l-10.729-8.784l-9.802,9.807
			l-19.478,19.49l-9.79,9.796l8.767,10.722l11.697,14.305c-0.053,0.122-0.106,0.245-0.159,0.367l-18.363,1.838l-13.788,1.38v13.857
			v27.563v13.857l13.788,1.38L170,203.125c0.048,0.111,0.096,0.222,0.144,0.334l-11.722,14.335l-8.767,10.722l9.79,9.796
			l19.478,19.49l9.802,9.807l10.729-8.784l14.6-11.952l1.878,18.792l1.378,13.79h13.858h13.773h13.889h13.858l1.378-13.79
			l1.878-18.792l14.6,11.952l10.729,8.784l9.802-9.807l19.478-19.49l9.79-9.796l-8.767-10.722l-11.722-14.335
			c0.048-0.111,0.096-0.222,0.144-0.334l18.403-1.841l13.788-1.38v-13.857v-27.563v-13.857l-13.788-1.38l-18.364-1.838
			c-0.053-0.122-0.106-0.245-0.159-0.367l11.698-14.305l8.767-10.722l-9.79-9.796l-19.478-19.49l-9.802-9.807l-10.729,8.784
			l-14.6,11.953l-1.878-18.792L272.689,65.078L272.689,65.078z M245,198.412c-14.404,0-26.122-11.729-26.122-26.146
			c0-14.417,11.718-26.147,26.122-26.147s26.122,11.729,26.122,26.147C271.122,186.683,259.404,198.412,245,198.412L245,198.412z"/>
	</g>
</g>
</svg>